# xmcd CD database file
#
# Track frame offsets:
#	150
#	23989
#	36611
#	62720
#	76591
#	91887
#	99280
#	120772
#	134693
#	157064
#
# Disc length: 2255 seconds
#
# Revision: 0
# Processed by: cddbd v1.5.2PL0 Copyright (c) Steve Scherf et al.
# Submitted via: CDex 1.70beta2
#
DISCID=7808cd0a
DTITLE=Ahmad Jamal - Happy moods
DYEAR=1900
DGENRE=Jazz
TTITLE0=little old lady
TTITLE1=for all we know
TTITLE2=pavanne
TTITLE3=exerpt from the blues
TTITLE4=you´d be so easy for love
TTITLE5=time on my hands
TTITLE6=raincheck
TTITLE7=i´ll never stop loving you
TTITLE8=speak low
TTITLE9=rhumba no. 2
EXTD=
EXTT0=
EXTT1=
EXTT2=
EXTT3=
EXTT4=
EXTT5=
EXTT6=
EXTT7=
EXTT8=
EXTT9=
PLAYORDER=
